# Blender 5.1.1
# www.blender.org
mtllib Map.mtl
o Plane
o Plane.001
v -1.007388 0.337581 1.030893
v 0.990605 0.226812 0.980823
v -0.981116 0.202045 -1.003642
v 1.012318 0.165938 -1.038438
v -0.956571 0.284266 -0.602529
v -0.943040 0.262199 -0.198352
v -0.946808 0.269465 0.191933
v -0.965851 0.296113 0.585502
v -0.581073 0.361205 0.957251
v -0.206282 0.425991 0.876774
v 0.202001 0.413256 0.877239
v 0.609891 0.392900 0.912257
v 0.940988 0.344168 0.598008
v 0.936024 0.294334 0.199814
v 0.919594 0.331381 -0.193847
v 0.925412 0.413509 -0.605170
v 0.575315 0.274694 -0.992768
v 0.198721 0.282786 -0.952457
v -0.198006 0.226238 -0.964286
v -0.597934 0.338102 -0.969073
v -0.565441 0.137348 0.551608
v -0.578478 0.086086 0.196426
v -0.573451 0.115671 -0.197507
v -0.566378 0.201269 -0.580605
v -0.198372 0.080733 0.568290
v -0.199917 0.002201 0.199128
v -0.199957 0.000174 -0.199995
v -0.198087 0.143076 -0.575398
v 0.198355 0.080379 0.573040
v 0.200000 0.000000 0.200000
v 0.199864 0.000417 -0.199995
v 0.199299 0.158004 -0.576427
v 0.570803 0.204895 0.551842
v 0.580913 0.072272 0.198218
v 0.572165 0.090787 -0.198555
v 0.555332 0.146174 -0.577769
vn -0.5604 0.7984 0.2203
vn 0.2147 0.9541 -0.2087
vn 0.1436 0.9370 0.3184
vn -0.0362 0.9773 0.2090
vn 0.0327 0.9486 0.3147
vn -0.0721 0.9925 -0.0991
vn 0.3649 0.9299 -0.0453
vn 0.4458 0.8951 -0.0124
vn 0.3682 0.9290 0.0384
vn -0.2480 0.8441 -0.4754
vn 0.1573 0.9766 -0.1467
vn 0.2152 0.9736 0.0759
vn 0.2899 0.9329 0.2138
vn 0.0216 0.6664 -0.7453
vn 0.0034 0.9781 -0.2081
vn 0.0055 1.0000 -0.0051
vn -0.0006 0.9346 0.3558
vn 0.0966 0.6709 -0.7353
vn -0.3209 0.9256 -0.2008
vn -0.1864 0.9825 0.0011
vn -0.2199 0.8997 0.3770
vn 0.4237 0.7835 -0.4546
vn -0.2930 0.8924 -0.3431
vn -0.5297 0.8467 0.0512
vn -0.5647 0.8127 0.1438
vn 0.1681 0.8700 -0.4634
vn -0.3419 0.8773 0.3368
vn 0.2616 0.9438 0.2019
vn -0.1432 0.9393 0.3119
vn 0.0523 0.9532 0.2977
vn 0.2952 0.8413 -0.4529
vn 0.4424 0.8852 -0.1440
vn 0.3674 0.9271 0.0743
vn 0.1914 0.9571 0.2174
vn 0.1356 0.6619 -0.7373
vn 0.2132 0.9554 -0.2041
vn 0.2954 0.9554 -0.0049
vn 0.1412 0.9250 0.3528
vn 0.0094 0.6745 -0.7382
vn 0.0058 0.9776 -0.2106
vn -0.0006 1.0000 0.0010
vn -0.0336 0.9219 0.3860
vn -0.3098 0.8564 -0.4131
vn -0.1762 0.9200 -0.3501
vn -0.2358 0.9705 0.0505
vn 0.0334 0.9892 0.1430
vn -0.3684 0.8744 0.3158
vn -0.5273 0.8439 -0.0990
vn -0.5673 0.8173 0.1006
vn -0.5712 0.8064 0.1529
vt 1.000000 0.800000
vt 0.800000 1.000000
vt 0.800000 0.800000
vt 0.200000 0.800000
vt 0.000000 1.000000
vt 0.000000 0.800000
vt 0.400000 0.800000
vt 0.200000 1.000000
vt 0.600000 0.800000
vt 0.400000 1.000000
vt 0.600000 1.000000
vt 0.200000 0.000000
vt 0.000000 0.200000
vt 0.000000 0.000000
vt 0.200000 0.200000
vt 0.000000 0.400000
vt 0.200000 0.400000
vt 0.000000 0.600000
vt 0.200000 0.600000
vt 0.400000 0.000000
vt 0.400000 0.200000
vt 0.400000 0.400000
vt 0.400000 0.600000
vt 0.600000 0.000000
vt 0.600000 0.200000
vt 0.600000 0.400000
vt 0.600000 0.600000
vt 0.800000 0.000000
vt 0.800000 0.200000
vt 0.800000 0.400000
vt 0.800000 0.600000
vt 1.000000 0.000000
vt 1.000000 0.200000
vt 1.000000 0.400000
vt 1.000000 0.600000
vt 1.000000 1.000000
s 0
f 16/1/1 17/2/1 36/3/1
f 24/4/2 3/5/2 5/6/2
f 28/7/3 20/8/3 24/4/3
f 32/9/4 19/10/4 28/7/4
f 36/3/5 18/11/5 32/9/5
f 9/12/6 8/13/6 1/14/6
f 21/15/7 7/16/7 8/13/7
f 22/17/8 6/18/8 7/16/8
f 23/19/9 5/6/9 6/18/9
f 10/20/10 21/15/10 9/12/10
f 25/21/11 22/17/11 21/15/11
f 26/22/12 23/19/12 22/17/12
f 27/23/13 24/4/13 23/19/13
f 11/24/14 25/21/14 10/20/14
f 29/25/15 26/22/15 25/21/15
f 30/26/16 27/23/16 26/22/16
f 31/27/17 28/7/17 27/23/17
f 12/28/18 29/25/18 11/24/18
f 33/29/19 30/26/19 29/25/19
f 34/30/20 31/27/20 30/26/20
f 35/31/21 32/9/21 31/27/21
f 2/32/22 33/29/22 12/28/22
f 13/33/23 34/30/23 33/29/23
f 14/34/24 35/31/24 34/30/24
f 15/35/25 36/3/25 35/31/25
f 16/1/26 4/36/26 17/2/26
f 24/4/27 20/8/27 3/5/27
f 28/7/28 19/10/28 20/8/28
f 32/9/29 18/11/29 19/10/29
f 36/3/30 17/2/30 18/11/30
f 9/12/31 21/15/31 8/13/31
f 21/15/32 22/17/32 7/16/32
f 22/17/33 23/19/33 6/18/33
f 23/19/34 24/4/34 5/6/34
f 10/20/35 25/21/35 21/15/35
f 25/21/36 26/22/36 22/17/36
f 26/22/37 27/23/37 23/19/37
f 27/23/38 28/7/38 24/4/38
f 11/24/39 29/25/39 25/21/39
f 29/25/40 30/26/40 26/22/40
f 30/26/41 31/27/41 27/23/41
f 31/27/42 32/9/42 28/7/42
f 12/28/43 33/29/43 29/25/43
f 33/29/44 34/30/44 30/26/44
f 34/30/45 35/31/45 31/27/45
f 35/31/46 36/3/46 32/9/46
f 2/32/47 13/33/47 33/29/47
f 13/33/48 14/34/48 34/30/48
f 14/34/49 15/35/49 35/31/49
f 15/35/50 16/1/50 36/3/50
